<svg width="500" height="480" xmlns="http://www.w3.org/2000/svg" xmlns:svg="http://www.w3.org/2000/svg" preserveAspectRatio="xMidYMid meet">
 <!-- Created with SVG-edit - https://github.com/SVG-Edit/svgedit-->
 <g class="layer">
  <title>Layer 1</title>
  <path d="m244.85163,5.59473c-4.41702,3.6771 -4.71149,4.65766 -4.71149,12.37956l0,8.21218l-7.8034,-3.6771c-7.21447,-3.43196 -8.24511,-3.55453 -13.69277,-2.32883c-3.09192,0.85799 -5.88936,1.59341 -6.18383,1.71598c-0.29447,0.12257 0.29447,2.57397 1.17787,5.51565c1.61957,5.14794 2.35574,5.76079 14.13447,11.27643l12.36766,5.88336l0,17.28236l0,17.15979l-3.82809,-2.08369c-2.06128,-1.10313 -10.45362,-5.39308 -18.40426,-9.43788l-14.7234,-7.35419l0.29447,-12.25699c0.14723,-12.25699 0.14723,-12.25699 -4.41702,-16.05666l-4.56426,-3.79967l-5.15319,4.16738c-4.71149,3.79967 -5.15319,4.78023 -5.15319,11.399l0,7.23162l-6.77277,-3.30939c-5.59489,-2.69654 -7.95064,-3.18682 -12.80936,-2.57397c-8.09787,1.10313 -8.24511,1.2257 -6.4783,6.98649c1.17787,4.16738 2.79745,5.76079 8.68681,8.82503c3.82809,1.96112 7.06723,3.79967 7.06723,4.04481c0,0.24514 -3.23915,1.83855 -7.3617,3.79967c-5.88936,2.81911 -7.8034,4.41252 -9.42298,8.57989c-2.35574,5.76079 -2.50298,5.51565 5.30043,7.59933c5.15319,1.47084 6.0366,1.2257 18.40426,-4.28995l12.9566,-5.88336l21.49617,10.66358c11.63149,5.88336 22.08511,10.66358 23.11575,10.66358c1.32511,0 1.76681,5.63822 1.76681,22.92057l0,23.04314l-17.81532,8.45732c-14.13447,6.74135 -18.10979,8.08961 -19.14043,6.74135c-0.73617,-0.98056 -6.0366,-8.45732 -11.77872,-16.54694c-10.01192,-14.46325 -10.60085,-14.95353 -16.78468,-16.3018c-3.53362,-0.73542 -6.77277,-1.34827 -7.06723,-1.34827c-0.4417,0 -1.47234,2.57397 -2.35574,5.63822l-1.76681,5.51565l10.74809,15.56638c5.88936,8.57989 10.74809,16.3018 10.74809,17.15979c0,0.73542 -7.8034,5.27051 -17.52085,9.92816l-17.37362,8.33475l-22.37958,-10.78615l-22.23234,-10.90872l0.4417,-22.43029l0.4417,-22.30772l12.36766,-6.1285c11.33702,-5.63822 12.51489,-6.49621 13.84,-11.27643c0.8834,-2.81911 1.61957,-5.39308 1.61957,-5.63822c0,-0.36771 -2.94468,-1.2257 -6.62553,-1.96112c-6.18383,-1.34827 -7.06723,-1.10313 -13.54553,2.32883l-7.06723,3.55453l-0.8834,-3.30939c-0.58894,-1.83855 -1.03064,-5.02537 -1.17787,-7.10905c-0.14723,-2.4514 -1.61957,-4.9028 -4.56426,-7.23162l-4.41702,-3.55453l-5.30043,4.28995c-4.85872,3.92224 -5.15319,4.65766 -4.71149,10.66358c0.29447,3.43196 0.14723,6.37364 -0.29447,6.37364c-0.4417,0 -3.97532,-1.47084 -8.09787,-3.18682c-6.62553,-2.94168 -7.95064,-3.06425 -13.54553,-1.83855c-6.77277,1.59341 -7.06723,2.20626 -4.41702,8.45732c1.47234,3.18682 4.41702,5.14794 14.2817,9.92816l12.51489,5.88336l0.4417,18.14035l0.4417,18.14035l-3.38638,-1.83855c-1.91404,-0.98056 -9.86468,-5.02537 -17.66809,-8.82503l-14.42894,-6.98649l0,-12.01185c0,-11.88928 0,-11.88928 -4.85872,-15.81152l-4.85872,-3.92224l-4.71149,4.04481c-4.12255,3.55453 -4.71149,4.78023 -4.71149,11.03129c0,3.79967 -0.29447,6.98649 -0.73617,6.98649c-0.4417,0 -4.41702,-1.71598 -8.68681,-3.79967c-6.33106,-2.94168 -9.12851,-3.55453 -12.9566,-2.94168c-8.09787,1.2257 -8.53957,1.83855 -6.77277,7.7219c1.32511,4.53509 2.50298,5.63822 10.15915,9.07017c4.85872,2.20626 8.68681,4.41252 8.68681,4.78023c0,0.49028 -1.76681,1.47084 -4.12255,2.20626c-8.09787,2.81911 -12.07319,6.49621 -12.51489,11.76671c-0.29447,4.78023 -0.14723,4.9028 5.74213,5.88336c5.59489,1.10313 6.92,0.73542 17.96255,-4.53509c6.62553,-3.06425 12.36766,-5.63822 12.80936,-5.63822c0.4417,0 8.53957,3.6771 17.81532,8.08961c15.01787,7.23162 16.63745,8.33475 14.2817,9.68302c-6.77277,3.79967 -32.53872,15.32124 -34.1583,15.32124c-1.17787,0 -6.92,-2.57397 -13.10383,-5.63822c-10.01192,-5.02537 -11.77872,-5.51565 -17.52085,-4.78023c-3.38638,0.36771 -6.62553,1.2257 -6.92,1.71598c-0.4417,0.49028 0,3.06425 0.73617,5.76079c1.32511,4.16738 2.79745,5.63822 8.83404,8.45732c3.97532,1.96112 7.21447,3.92224 7.21447,4.28995c0,0.36771 -3.23915,2.08369 -7.21447,3.92224c-5.15319,2.4514 -7.3617,4.28995 -7.95064,6.74135c-0.4417,1.96112 -1.17787,4.28995 -1.76681,5.39308c-0.73617,1.59341 0.58894,2.32883 5.88936,3.43196c6.33106,1.34827 7.3617,1.2257 13.54553,-1.71598c3.68085,-1.71598 6.92,-3.06425 7.21447,-3.06425c0.29447,0 0.58894,3.30939 0.58894,7.23162c0,6.00593 0.58894,7.96704 3.82809,11.03129c4.71149,4.65766 6.33106,4.78023 11.18979,0.36771c3.38638,-2.94168 3.82809,-4.65766 4.56426,-15.19867c0.4417,-6.61878 1.17787,-12.50213 1.76681,-13.11498c0.4417,-0.73542 10.15915,-5.51565 21.49617,-10.66358c11.48426,-5.27051 21.05447,-10.1733 21.49617,-11.03129c0.4417,-0.98056 8.24511,2.20626 22.96851,9.31531l22.37958,10.78615l0.4417,17.89521l0.4417,17.89521l-23.41021,0l-23.26298,0l-4.71149,4.04481l-4.71149,4.04481l4.71149,3.79967l4.85872,3.92224l23.11575,0.36771l23.26298,0.36771l0,17.77264l-0.14723,17.77264l-22.23234,10.54101c-20.46553,9.80559 -22.37958,10.41844 -24.58809,8.57989c-1.32511,-1.10313 -11.92596,-6.37364 -23.41021,-11.76671l-20.90723,-9.68302l0,-11.76671c0,-11.76671 0,-11.76671 -4.85872,-15.68895l-4.85872,-3.92224l-4.71149,4.04481c-4.12255,3.55453 -4.71149,4.78023 -4.71149,11.03129c0,3.79967 -0.4417,6.98649 -0.8834,6.98649c-0.4417,0 -3.68085,-1.34827 -7.21447,-3.06425c-5.88936,-2.94168 -6.77277,-3.06425 -13.10383,-1.59341c-5.15319,1.10313 -6.62553,1.96112 -6.0366,3.43196c0.58894,0.98056 1.32511,3.43196 1.76681,5.27051c0.58894,2.57397 2.79745,4.41252 7.95064,6.74135c3.97532,1.83855 7.21447,3.55453 7.21447,3.92224c0,0.36771 -3.23915,2.32883 -7.21447,4.28995c-6.0366,2.81911 -7.50894,4.28995 -8.83404,8.45732c-1.76681,5.76079 -1.32511,6.25107 5.88936,7.84447c4.85872,1.10313 6.18383,0.73542 17.37362,-4.78023c6.77277,-3.30939 12.66213,-6.00593 13.3983,-6.00593c0.8834,0 35.0417,15.44381 36.51404,16.54694c0.58894,0.49028 -24.88255,13.11498 -30.91915,15.32124c-3.53362,1.34827 -5.00596,0.98056 -15.90128,-4.16738c-10.60085,-5.14794 -12.66213,-5.76079 -17.81532,-5.02537c-6.92,0.98056 -7.65617,1.83855 -6.33106,7.47676c0.73617,3.6771 2.35574,5.14794 9.12851,8.70246l8.09787,4.41252l-8.68681,4.04481c-7.50894,3.55453 -8.98128,4.78023 -10.45362,9.19274c-1.03064,2.81911 -1.47234,5.51565 -1.17787,6.1285c0.4417,0.49028 3.68085,1.34827 7.06723,1.71598c5.44766,0.73542 7.50894,0.24514 14.13447,-2.94168c4.12255,-2.08369 7.95064,-3.79967 8.24511,-3.79967c0.4417,0 0.73617,3.18682 0.73617,7.10905c0,6.49621 0.4417,7.47676 5.15319,11.27643l5.15319,4.16738l4.41702,-3.55453c4.12255,-3.30939 4.26979,-3.79967 4.71149,-16.3018l0.4417,-12.86984l17.37362,-8.33475l17.37362,-8.45732l-0.4417,18.01778l-0.4417,18.01778l-12.36766,5.76079c-13.10383,6.1285 -13.98723,6.86392 -15.60681,12.99241c-0.8834,3.6771 -0.73617,3.92224 5.15319,5.39308c5.59489,1.47084 6.77277,1.2257 14.13447,-1.71598c4.41702,-1.83855 8.09787,-3.30939 8.39234,-3.30939c0.14723,0 0,2.94168 -0.14723,6.61878c-0.4417,5.88336 -0.14723,6.98649 4.26979,11.03129l4.71149,4.53509l5.74213,-4.53509c5.15319,-4.28995 5.59489,-5.27051 5.59489,-11.15386l0,-6.49621l7.21447,3.79967c5.88936,2.94168 8.39234,3.55453 12.36766,2.94168c8.39234,-1.34827 8.98128,-2.08369 6.77277,-8.08961c-1.91404,-4.78023 -3.38638,-6.00593 -14.13447,-11.52157l-12.07319,-6.1285l-0.4417,-22.43029l-0.4417,-22.43029l21.79064,-10.41844c11.92596,-5.76079 22.52681,-10.29587 23.55745,-10.05073c2.79745,0.61285 34.89447,16.17923 34.89447,17.03722c0,0.36771 -5.00596,7.84447 -11.04255,16.79208l-11.04255,16.05666l1.61957,5.63822c0.8834,3.06425 1.91404,5.51565 2.35574,5.51565c0.29447,0 3.53362,-0.61285 7.06723,-1.34827c6.18383,-1.34827 6.62553,-1.71598 17.81532,-17.77264c6.33106,-9.07017 11.77872,-16.42437 12.22043,-16.3018c0.4417,0 8.53957,3.79967 17.81532,8.33475l16.93192,8.21218l0.4417,21.08202c0.29447,15.68895 -0.14723,21.08202 -1.32511,21.08202c-1.03064,0 -11.33702,4.65766 -23.11575,10.41844c-11.63149,5.76079 -21.49617,10.41844 -21.79064,10.41844c-0.4417,0 -5.88936,-2.4514 -12.36766,-5.51565c-12.80936,-6.00593 -12.9566,-6.1285 -20.90723,-4.28995c-5.30043,1.2257 -5.30043,1.34827 -3.82809,5.88336c1.91404,5.76079 4.26979,7.96704 11.48426,10.66358c3.23915,1.2257 5.88936,2.57397 5.88936,2.94168c0,0.36771 -3.23915,2.20626 -7.06723,4.04481c-6.18383,2.94168 -7.3617,4.04481 -8.68681,8.9476l-1.47234,5.51565l6.0366,1.34827c5.44766,1.2257 6.62553,1.10313 13.10383,-1.83855c3.82809,-1.71598 7.21447,-3.18682 7.65617,-3.18682c0.4417,0 0.73617,3.18682 0.73617,7.10905c0,6.49621 0.4417,7.47676 5.15319,11.27643l5.15319,4.16738l5.30043,-4.28995l5.30043,-4.16738l-0.58894,-12.25699l-0.4417,-12.13442l11.04255,-5.63822c6.0366,-3.18682 14.13447,-7.23162 18.10979,-9.07017l6.92,-3.43196l0,17.03722l0,16.91465l-12.51489,5.88336c-11.18979,5.27051 -12.66213,6.37364 -13.98723,10.78615c-0.8834,2.69654 -1.17787,5.27051 -0.73617,5.88336c0.4417,0.61285 3.38638,1.47084 6.62553,1.96112c4.71149,0.61285 7.21447,0.24514 12.66213,-2.32883c3.82809,-1.71598 7.06723,-3.18682 7.3617,-3.18682c0.29447,0 0.58894,3.79967 0.58894,8.33475c0,7.84447 0.29447,8.57989 4.85872,12.25699l4.71149,3.79967l5.59489,-4.28995c5.15319,-4.16738 5.44766,-4.65766 5.44766,-12.25699l0,-7.96704l7.8034,3.55453c6.62553,3.06425 8.39234,3.43196 12.80936,2.4514c7.06723,-1.59341 7.50894,-2.08369 5.59489,-8.08961c-1.47234,-4.78023 -2.35574,-5.51565 -13.84,-11.03129l-12.36766,-5.76079l0,-16.91465l0,-17.03722l4.85872,2.4514c2.50298,1.34827 10.60085,5.39308 17.81532,9.07017l13.10383,6.49621l-0.29447,11.88928l-0.29447,11.88928l4.85872,4.41252l4.85872,4.28995l5.59489,-4.16738c5.00596,-3.92224 5.44766,-4.78023 5.44766,-11.15386l0,-6.98649l6.4783,3.18682c7.3617,3.55453 8.24511,3.6771 15.75404,1.96112l5.30043,-1.2257l-1.47234,-5.63822c-1.32511,-4.78023 -2.50298,-5.88336 -8.68681,-8.82503c-3.82809,-1.83855 -7.06723,-3.6771 -7.06723,-4.04481c0,-0.49028 1.76681,-1.47084 4.12255,-2.20626c8.09787,-2.81911 12.07319,-6.49621 12.51489,-11.76671c0.29447,-4.78023 0.14723,-4.9028 -5.74213,-5.88336c-5.59489,-1.10313 -6.92,-0.73542 -18.10979,4.65766c-6.77277,3.06425 -13.10383,5.39308 -14.13447,5.14794c-1.03064,-0.36771 -10.60085,-5.14794 -21.2017,-10.54101c-10.74809,-5.51565 -20.46553,-9.92816 -21.64341,-9.92816c-1.76681,0 -2.06128,-3.55453 -2.06128,-21.20459l0.14723,-21.08202l17.66809,-8.45732c9.71745,-4.53509 17.81532,-8.21218 18.10979,-7.96704c0.29447,0.24514 5.30043,7.59933 11.33702,16.3018c10.89532,15.81152 12.51489,17.15979 21.93787,18.7532c3.38638,0.49028 3.97532,0 5.59489,-5.14794l1.76681,-5.63822l-11.04255,-15.93409c-6.0366,-8.82503 -11.04255,-16.42437 -11.04255,-17.03722c0,-1.34827 34.01107,-17.40493 35.92511,-16.91465c4.85872,1.10313 44.90638,21.20459 43.87575,22.06258c-0.73617,0.61285 -1.03064,10.54101 -0.58894,22.18515l0.58894,21.08202l-12.66213,6.1285c-10.74809,5.27051 -12.80936,6.74135 -14.13447,10.41844c-2.20851,6.49621 -1.91404,6.98649 4.71149,8.33475c5.74213,1.2257 6.92,1.10313 13.98723,-2.32883l7.8034,-3.6771l0,7.35419c0,6.98649 0.29447,7.47676 5.15319,10.66358l5.30043,3.30939l5.15319,-4.16738c5.00596,-4.04481 5.30043,-4.41252 4.41702,-10.66358c-0.4417,-3.43196 -0.58894,-6.37364 -0.14723,-6.37364c0.4417,0 4.26979,1.59341 8.24511,3.55453c7.3617,3.43196 7.65617,3.55453 13.98723,1.71598c3.53362,-0.98056 6.4783,-1.96112 6.4783,-1.96112c0,-0.12257 -0.8834,-2.57397 -1.91404,-5.51565c-1.76681,-4.9028 -2.94468,-5.76079 -14.42894,-11.15386l-12.36766,-5.76079l-0.4417,-17.40493c-0.14723,-9.56045 0,-17.40493 0.4417,-17.40493c0.29447,0 8.24511,3.6771 17.52085,8.08961l16.78468,7.96704l0.14723,12.50213c0.29447,12.01185 0.4417,12.6247 4.56426,16.17923l4.41702,3.55453l5.15319,-4.16738c4.71149,-3.79967 5.15319,-4.78023 5.15319,-11.27643l0,-7.23162l9.27575,4.16738c8.53957,3.92224 9.42298,4.04481 15.01787,2.69654c6.33106,-1.59341 6.33106,-1.59341 4.71149,-8.21218c-1.03064,-3.92224 -2.20851,-5.02537 -9.86468,-8.45732c-4.85872,-2.08369 -8.83404,-4.28995 -8.83404,-4.65766c0,-0.36771 3.38638,-2.20626 7.3617,-4.04481c6.0366,-2.81911 7.50894,-4.16738 8.83404,-8.33475c0.8834,-2.69654 1.17787,-5.39308 0.73617,-6.00593c-0.4417,-0.61285 -3.38638,-1.47084 -6.62553,-1.96112c-5.30043,-0.73542 -7.21447,-0.24514 -17.37362,4.78023c-6.4783,3.06425 -12.22043,5.63822 -13.10383,5.63822c-1.61957,0 -31.06638,-13.97297 -33.12766,-15.68895c-1.32511,-1.10313 31.80255,-17.40493 35.33617,-17.40493c0.8834,0 6.77277,2.69654 13.10383,6.00593c11.48426,5.88336 11.77872,6.00593 18.55149,4.65766c5.15319,-0.98056 6.77277,-1.71598 6.33106,-3.18682c-0.4417,-1.10313 -1.03064,-3.6771 -1.61957,-5.76079c-0.58894,-2.81911 -2.65021,-4.53509 -8.09787,-7.23162c-4.12255,-1.96112 -7.3617,-3.92224 -7.3617,-4.28995c0,-0.36771 2.94468,-1.96112 6.4783,-3.55453c4.41702,-1.83855 7.06723,-4.04481 8.09787,-6.61878c2.79745,-6.37364 2.06128,-7.7219 -4.41702,-9.31531c-5.44766,-1.34827 -6.4783,-1.2257 -12.66213,1.59341c-3.68085,1.71598 -6.92,3.18682 -7.21447,3.18682c-0.29447,0 -0.58894,-3.18682 -0.58894,-7.10905c0,-6.49621 -0.4417,-7.47676 -5.15319,-11.27643l-5.15319,-4.16738l-4.41702,3.55453c-3.97532,3.18682 -4.41702,4.41252 -4.56426,10.90872c0,4.16738 -0.58894,9.92816 -1.03064,12.99241l-1.03064,5.39308l-20.61277,9.68302c-11.33702,5.27051 -21.34894,10.29587 -22.23234,11.27643c-1.32511,1.47084 -5.59489,-0.24514 -23.85192,-8.9476l-22.23234,-10.66358l-0.14723,-17.5275l0,-17.40493l22.08511,0l21.93787,0l5.30043,-3.79967c2.79745,-2.08369 5.15319,-4.53509 5.15319,-5.27051c0,-0.85799 -1.76681,-2.94168 -4.12255,-4.78023c-3.97532,-3.18682 -4.26979,-3.18682 -27.2383,-3.43196l-23.26298,-0.12257l0.4417,-17.89521l0.4417,-18.01778l21.93787,-10.54101c21.05447,-10.29587 22.08511,-10.66358 24.29362,-8.45732c1.32511,1.2257 11.33702,6.37364 22.23234,11.399l19.8766,9.19274l1.47234,12.99241c1.32511,11.64414 1.91404,13.23755 5.44766,16.3018l4.12255,3.30939l5.15319,-4.16738c4.71149,-3.79967 5.15319,-4.78023 5.15319,-11.399l0,-7.10905l7.21447,3.30939c6.77277,3.18682 7.3617,3.30939 13.98723,1.71598c5.30043,-1.2257 6.77277,-1.96112 6.0366,-3.55453c-0.58894,-1.10313 -1.32511,-3.43196 -1.76681,-5.39308c-0.58894,-2.4514 -2.79745,-4.16738 -7.95064,-6.61878c-3.97532,-1.71598 -7.21447,-3.55453 -7.21447,-4.04481c0,-0.49028 3.23915,-2.57397 7.06723,-4.53509c5.88936,-3.06425 7.50894,-4.65766 8.68681,-8.82503c0.8834,-2.69654 1.03064,-5.27051 0.4417,-5.63822c-0.73617,-0.36771 -4.12255,-0.98056 -7.65617,-1.2257c-5.59489,-0.61285 -7.50894,-0.12257 -17.96255,5.27051l-11.48426,6.00593l-17.66809,-8.33475c-9.71745,-4.53509 -17.96255,-8.57989 -18.40426,-8.82503c-0.8834,-0.85799 31.50809,-16.79208 33.86383,-16.79208c1.03064,0 7.06723,2.69654 13.3983,6.00593c11.48426,5.88336 11.77872,5.88336 17.66809,4.53509c5.88936,-1.47084 6.0366,-1.71598 5.74213,-6.37364c-0.4417,-5.14794 -4.41702,-8.82503 -12.51489,-11.64414c-2.35574,-0.73542 -4.12255,-1.71598 -4.12255,-2.20626c0,-0.36771 3.97532,-2.57397 8.68681,-4.9028c7.65617,-3.6771 8.68681,-4.65766 10.01192,-9.43788l1.47234,-5.39308l-5.30043,-1.2257c-7.50894,-1.71598 -7.95064,-1.59341 -16.34298,2.4514c-4.12255,1.96112 -7.8034,3.6771 -8.09787,3.6771c-0.4417,0 -0.73617,-3.18682 -0.73617,-7.10905c0,-6.49621 -0.4417,-7.47676 -5.15319,-11.27643l-5.15319,-4.16738l-4.85872,3.92224l-4.71149,3.92224l0.4417,12.25699l0.29447,12.13442l-10.60085,5.14794c-5.88936,2.69654 -13.84,6.61878 -17.81532,8.57989l-7.06723,3.55453l0.4417,-18.01778l0.4417,-17.89521l12.51489,-5.88336c11.33702,-5.39308 12.51489,-6.37364 14.2817,-11.15386c2.06128,-5.88336 1.47234,-6.49621 -6.33106,-7.7219c-3.68085,-0.49028 -6.77277,0.12257 -12.22043,2.4514c-4.12255,1.71598 -7.8034,3.06425 -8.24511,3.06425c-0.4417,0 -0.73617,-3.18682 -0.73617,-7.10905c0,-6.37364 -0.4417,-7.59933 -4.41702,-10.66358l-4.41702,-3.55453l-5.15319,4.16738c-4.56426,3.6771 -5.15319,4.78023 -5.15319,10.78615l0,6.49621l-7.8034,-3.6771c-7.06723,-3.43196 -8.24511,-3.55453 -13.98723,-2.32883c-6.62553,1.34827 -6.92,1.83855 -4.71149,8.33475c1.32511,3.6771 3.38638,5.14794 13.98723,10.41844l12.66213,6.1285l-0.4417,20.83689c-0.14723,11.399 0.14723,21.44973 0.73617,22.30772c0.58894,0.85799 -6.62553,5.02537 -20.90723,11.88928c-12.07319,5.76079 -22.67404,10.54101 -23.70468,10.54101c-2.79745,0 -35.33617,-16.05666 -35.33617,-17.40493c0,-0.61285 5.00596,-8.21218 10.89532,-16.91465c10.74809,-15.19867 11.04255,-15.81152 9.57021,-20.34661c-2.20851,-6.49621 -2.65021,-6.74135 -9.86468,-5.14794c-6.0366,1.2257 -6.4783,1.71598 -17.52085,17.65007c-8.53957,12.13442 -12.07319,16.3018 -13.69277,15.81152c-1.17787,-0.49028 -9.27575,-4.16738 -17.96255,-8.33475l-15.75404,-7.59933l-0.14723,-23.04314c0,-15.81152 0.4417,-22.92057 1.61957,-22.92057c0.8834,0 10.89532,-4.65766 22.23234,-10.41844c11.33702,-5.76079 21.34894,-10.41844 22.08511,-10.41844c0.8834,0 6.92,2.57397 13.54553,5.63822c11.63149,5.51565 12.07319,5.63822 18.55149,4.28995c3.53362,-0.85799 6.62553,-1.59341 6.77277,-1.71598c0.29447,-0.12257 -0.4417,-2.69654 -1.32511,-5.63822c-1.47234,-4.65766 -2.79745,-5.88336 -9.57021,-9.07017l-7.8034,-3.55453l7.21447,-4.16738c5.44766,-2.94168 7.50894,-5.02537 8.24511,-7.96704c1.47234,-6.61878 1.17787,-6.98649 -5.74213,-7.84447c-5.44766,-0.73542 -7.65617,-0.36771 -13.10383,2.32883l-6.4783,3.18682l-1.03064,-7.84447c-0.73617,-6.37364 -1.61957,-8.33475 -5.30043,-11.27643l-4.26979,-3.43196l-5.30043,4.28995l-5.30043,4.16738l0.73617,12.01185l0.73617,11.88928l-18.25702,9.07017l-18.25702,9.07017l0,-16.91465l0,-16.91465l12.36766,-5.88336c11.77872,-5.63822 12.51489,-6.25107 14.13447,-11.27643c0.8834,-3.06425 1.47234,-5.51565 1.17787,-5.63822c-0.29447,-0.12257 -3.09192,-0.85799 -6.33106,-1.71598c-5.30043,-1.34827 -6.33106,-1.10313 -13.54553,2.20626c-4.26979,2.08369 -7.95064,3.6771 -8.09787,3.6771c-0.29447,0 -0.58894,-4.04481 -0.8834,-8.9476c-0.4417,-7.59933 -1.03064,-9.31531 -4.41702,-12.25699c-2.06128,-1.83855 -4.26979,-3.30939 -4.71149,-3.30939c-0.4417,0 -2.94468,1.83855 -5.59489,4.04481zm-5.00596,192.06705l-0.4417,12.13442l-11.77872,-17.15979c-6.4783,-9.43788 -11.77872,-17.77264 -11.77872,-18.38549c0,-0.61285 5.30043,-3.79967 11.77872,-6.98649l11.77872,-5.88336l0.4417,12.01185c0.14723,6.61878 0.14723,17.5275 0,24.26884zm34.6,-29.41678c6.18383,2.94168 11.18979,5.76079 11.04255,6.1285c-1.91404,3.43196 -24.14638,35.4227 -24.73532,35.54527c-0.4417,0 -0.58894,-10.78615 -0.29447,-24.0237c0.29447,-13.11498 0.8834,-23.77856 1.47234,-23.53342c0.58894,0.24514 6.18383,2.81911 12.51489,5.88336zm-65.22468,32.11332c6.77277,9.68302 12.51489,18.01778 12.9566,18.7532c0.58894,0.61285 -0.73617,0.36771 -2.65021,-0.73542c-2.06128,-0.98056 -13.84,-6.74135 -26.20766,-12.74727l-22.67404,-10.78615l6.4783,-3.30939c14.2817,-7.23162 16.78468,-8.33475 18.25702,-8.45732c1.03064,-0.12257 7.21447,7.7219 13.84,17.28236zm107.77532,-11.76671c9.57021,4.65766 11.33702,6.00593 9.71745,7.23162c-2.35574,1.83855 -48.29277,24.0237 -48.29277,23.28828c0,-1.47084 25.02979,-36.15812 26.06043,-36.15812c0.58894,0 6.18383,2.57397 12.51489,5.63822zm22.67404,44.12517c-0.58894,1.2257 -6.77277,1.59341 -25.91319,1.47084c-13.84,-0.12257 -24.58809,-0.49028 -23.99915,-0.98056c0.58894,-0.49028 12.07319,-6.25107 25.47149,-12.74727l24.29362,-11.76671l0.4417,11.27643c0.14723,6.1285 0.14723,11.88928 -0.29447,12.74727zm-152.24001,-11.03129c13.54553,6.49621 24.73532,12.01185 24.73532,12.37956c0,0.24514 -11.63149,0.36771 -25.76596,0.24514l-25.76596,-0.24514l0,-12.01185c0,-6.74135 0.4417,-12.13442 1.03064,-12.13442c0.58894,0 12.07319,5.27051 25.76596,11.76671zm24.73532,29.17164c0,0.24514 -10.15915,5.39308 -22.37958,11.27643c-12.36766,5.88336 -23.99915,11.52157 -25.76596,12.50213l-3.38638,1.71598l0,-12.37956l0,-12.37956l24.73532,-0.36771c13.54553,-0.12257 25.02979,-0.49028 25.76596,-0.61285c0.58894,-0.12257 1.03064,0 1.03064,0.24514zm127.79915,13.36012l-0.4417,11.76671l-24.58809,-11.88928l-24.58809,-11.88928l23.85192,-0.61285c13.10383,-0.36771 24.44085,-0.24514 25.02979,0.12257c0.58894,0.36771 0.8834,6.00593 0.73617,12.50213zm-117.93447,1.71598c-11.77872,17.5275 -25.17702,35.91298 -26.06043,35.91298c-0.58894,0 -6.4783,-2.57397 -13.10383,-5.76079c-7.65617,-3.79967 -11.18979,-6.1285 -10.01192,-6.74135c3.68085,-1.96112 48.8817,-24.0237 49.32341,-24.14627c0.29447,-0.12257 0.14723,0.24514 -0.14723,0.73542zm82.89277,12.25699l25.02979,11.88928l-12.22043,5.88336c-6.62553,3.18682 -12.66213,5.76079 -13.3983,5.51565c-1.47234,-0.36771 -26.20766,-35.17756 -25.02979,-35.17756c0.29447,0 11.92596,5.39308 25.61872,11.88928zm-64.78298,21.81744l0,23.77856l-11.33702,-5.51565c-6.33106,-3.06425 -12.07319,-6.1285 -12.80936,-6.61878c-0.8834,-0.73542 22.23234,-35.4227 23.85192,-35.54527c0.14723,0 0.29447,10.78615 0.29447,23.90113zm33.7166,-6.37364c6.62553,9.31531 11.92596,17.03722 11.92596,17.40493c0,0.49028 -23.11575,11.64414 -24.29362,11.64414c-0.4417,0 -0.73617,-10.54101 -0.73617,-23.53342c0,-12.86984 0.29447,-23.16571 0.58894,-22.92057c0.29447,0.24514 5.88936,8.08961 12.51489,17.40493z" fill="black" id="svg_1"/>
 </g>
</svg>